<svg aria-roledescription="er" role="graphics-document document" viewBox="-22.442636489868164 0 331.39825439453125 663"
     style="max-width: 331.398px; background-color: white;"
     xmlns="http://www.w3.org/2000/svg" width="100%" id="mermaid-1704734573269"><style>#mermaid-1704734573269{font-family:"trebuchet ms",verdana,arial,sans-serif;font-size:16px;fill:#333;}#mermaid-1704734573269 .error-icon{fill:#552222;}#mermaid-1704734573269 .error-text{fill:#552222;stroke:#552222;}#mermaid-1704734573269 .edge-thickness-normal{stroke-width:2px;}#mermaid-1704734573269 .edge-thickness-thick{stroke-width:3.5px;}#mermaid-1704734573269 .edge-pattern-solid{stroke-dasharray:0;}#mermaid-1704734573269 .edge-pattern-dashed{stroke-dasharray:3;}#mermaid-1704734573269 .edge-pattern-dotted{stroke-dasharray:2;}#mermaid-1704734573269 .marker{fill:#333333;stroke:#333333;}#mermaid-1704734573269 .marker.cross{stroke:#333333;}#mermaid-1704734573269 svg{font-family:"trebuchet ms",verdana,arial,sans-serif;font-size:16px;}#mermaid-1704734573269 .entityBox{fill:#ECECFF;stroke:#9370DB;}#mermaid-1704734573269 .attributeBoxOdd{fill:#ffffff;stroke:#9370DB;}#mermaid-1704734573269 .attributeBoxEven{fill:#f2f2f2;stroke:#9370DB;}#mermaid-1704734573269 .relationshipLabelBox{fill:hsl(80, 100%, 96.2745098039%);opacity:0.7;background-color:hsl(80, 100%, 96.2745098039%);}#mermaid-1704734573269 .relationshipLabelBox rect{opacity:0.5;}#mermaid-1704734573269 .relationshipLine{stroke:#333333;}#mermaid-1704734573269 .entityTitleText{text-anchor:middle;font-size:18px;fill:#333;}#mermaid-1704734573269 :root{--mermaid-font-family:"trebuchet ms",verdana,arial,sans-serif;}</style><g/><defs><marker orient="auto" markerHeight="18" markerWidth="18" refY="9" refX="0" id="ONLY_ONE_START"><path d="M9,0 L9,18 M15,0 L15,18" fill="none" stroke="gray"/></marker></defs><defs><marker orient="auto" markerHeight="18" markerWidth="18" refY="9" refX="18" id="ONLY_ONE_END"><path d="M3,0 L3,18 M9,0 L9,18" fill="none" stroke="gray"/></marker></defs><defs><marker orient="auto" markerHeight="18" markerWidth="30" refY="9" refX="0" id="ZERO_OR_ONE_START"><circle r="6" cy="9" cx="21" fill="white" stroke="gray"/><path d="M9,0 L9,18" fill="none" stroke="gray"/></marker></defs><defs><marker orient="auto" markerHeight="18" markerWidth="30" refY="9" refX="30" id="ZERO_OR_ONE_END"><circle r="6" cy="9" cx="9" fill="white" stroke="gray"/><path d="M21,0 L21,18" fill="none" stroke="gray"/></marker></defs><defs><marker orient="auto" markerHeight="36" markerWidth="45" refY="18" refX="18" id="ONE_OR_MORE_START"><path d="M0,18 Q 18,0 36,18 Q 18,36 0,18 M42,9 L42,27" fill="none" stroke="gray"/></marker></defs><defs><marker orient="auto" markerHeight="36" markerWidth="45" refY="18" refX="27" id="ONE_OR_MORE_END"><path d="M3,9 L3,27 M9,18 Q27,0 45,18 Q27,36 9,18" fill="none" stroke="gray"/></marker></defs><defs><marker orient="auto" markerHeight="36" markerWidth="57" refY="18" refX="18" id="ZERO_OR_MORE_START"><circle r="6" cy="18" cx="48" fill="white" stroke="gray"/><path d="M0,18 Q18,0 36,18 Q18,36 0,18" fill="none" stroke="gray"/></marker></defs><defs><marker orient="auto" markerHeight="36" markerWidth="57" refY="18" refX="39" id="ZERO_OR_MORE_END"><circle r="6" cy="18" cx="9" fill="white" stroke="gray"/><path d="M21,18 Q39,0 57,18 Q39,36 21,18" fill="none" stroke="gray"/></marker></defs><path style="stroke: gray; fill: none;" marker-start="url(#ONLY_ONE_START)" marker-end="url(#ONE_OR_MORE_END)" d="M70,475L70,483.3333333333333C70,491.6666666666667,70,508.3333333333333,77.44047619047619,525C84.88095238095238,541.6666666666666,99.76190476190476,558.3333333333334,107.20238095238095,566.6666666666666L114.64285714285714,575" class="er relationshipLine"/><path style="stroke: gray; fill: none;" marker-start="url(#ONE_OR_MORE_START)" marker-end="url(#ZERO_OR_MORE_END)" d="M95,87.6L82.5,96C70,104.39999999999999,45,121.2,32.5,144.18333333333334C20,167.16666666666666,20,196.33333333333334,20,225.5C20,254.66666666666666,20,283.8333333333333,23.930817610062892,306.75C27.861635220125788,329.6666666666667,35.723270440251575,346.3333333333333,39.65408805031446,354.6666666666667L43.58490566037736,363" class="er relationshipLine"/><path style="stroke: gray; fill: none;" marker-start="url(#ZERO_OR_MORE_START)" marker-end="url(#ZERO_OR_MORE_END)" d="M175.35714285714286,88L182.79761904761904,96.33333333333333C190.23809523809527,104.66666666666667,205.11904761904762,121.33333333333333,212.55952380952382,138C220,154.66666666666666,220,171.33333333333334,220,179.66666666666666L220,188" class="er relationshipLine"/><path style="stroke: gray; fill: none;" marker-start="url(#ONE_OR_MORE_START)" marker-end="url(#ONLY_ONE_END)" d="M187.85714285714286,263L180.7142857142857,271.3333333333333C173.57142857142858,279.6666666666667,159.2857142857143,296.3333333333333,146.2466307277628,313C133.2075471698113,329.6666666666667,121.41509433962263,346.3333333333333,115.5188679245283,354.6666666666667L109.62264150943396,363" class="er relationshipLine"/><path style="stroke: gray; fill: none;" marker-start="url(#ONE_OR_MORE_START)" marker-end="url(#ONLY_ONE_END)" d="M241.42857142857142,263L246.19047619047618,271.3333333333333C250.95238095238096,279.6666666666667,260.4761904761905,296.3333333333333,265.23809523809524,322.3333333333333C270,348.3333333333333,270,383.6666666666667,270,419C270,454.3333333333333,270,489.6666666666667,257.5992063492063,515.6666666666666C245.19841269841268,541.6666666666666,220.3968253968254,558.3333333333334,207.99603174603172,566.6666666666666L195.5952380952381,575" class="er relationshipLine"/><g transform="translate(95,20 )" id="entity-topic-772b8b90-0d53-5603-8e2b-54a66c7868bd"><rect height="68" width="100" y="0" x="0" class="er entityBox"/><text style="dominant-baseline: middle; text-anchor: middle; font-size: 12px;" transform="translate(50,12)" y="0" x="0" id="text-entity-topic-772b8b90-0d53-5603-8e2b-54a66c7868bd" class="er entityLabel">topic</text><rect height="22" width="37.60612487792969" y="24" x="0" class="er attributeBoxOdd"/><text style="dominant-baseline: middle; font-size: 10.2px;" transform="translate(5,35)" y="0" x="0" id="text-entity-topic-772b8b90-0d53-5603-8e2b-54a66c7868bd-attr-1-type" class="er entityLabel">string</text><rect height="22" width="62.39387512207031" y="24" x="37.60612487792969" class="er attributeBoxOdd"/><text style="dominant-baseline: middle; font-size: 10.2px;" transform="translate(42.60612487792969,35)" y="0" x="0" id="text-entity-topic-772b8b90-0d53-5603-8e2b-54a66c7868bd-attr-1-name" class="er entityLabel">title</text><rect height="22" width="37.60612487792969" y="46" x="0" class="er attributeBoxEven"/><text style="dominant-baseline: middle; font-size: 10.2px;" transform="translate(5,57)" y="0" x="0" id="text-entity-topic-772b8b90-0d53-5603-8e2b-54a66c7868bd-attr-2-type" class="er entityLabel">string</text><rect height="22" width="62.39387512207031" y="46" x="37.60612487792969" class="er attributeBoxEven"/><text style="dominant-baseline: middle; font-size: 10.2px;" transform="translate(42.60612487792969,57)" y="0" x="0" id="text-entity-topic-772b8b90-0d53-5603-8e2b-54a66c7868bd-attr-2-name" class="er entityLabel">description</text></g><g transform="translate(20,363 )" id="entity-article-5a9a9253-9605-5c65-ab99-278fb0374797"><rect height="112" width="100" y="0" x="0" class="er entityBox"/><text style="dominant-baseline: middle; text-anchor: middle; font-size: 12px;" transform="translate(50,12)" y="0" x="0" id="text-entity-article-5a9a9253-9605-5c65-ab99-278fb0374797" class="er entityLabel">article</text><rect height="22" width="36.661781311035156" y="24" x="0" class="er attributeBoxOdd"/><text style="dominant-baseline: middle; font-size: 10.2px;" transform="translate(5,35)" y="0" x="0" id="text-entity-article-5a9a9253-9605-5c65-ab99-278fb0374797-attr-1-type" class="er entityLabel">string</text><rect height="22" width="63.338218688964844" y="24" x="36.661781311035156" class="er attributeBoxOdd"/><text style="dominant-baseline: middle; font-size: 10.2px;" transform="translate(41.661781311035156,35)" y="0" x="0" id="text-entity-article-5a9a9253-9605-5c65-ab99-278fb0374797-attr-1-name" class="er entityLabel">title</text><rect height="22" width="36.661781311035156" y="46" x="0" class="er attributeBoxEven"/><text style="dominant-baseline: middle; font-size: 10.2px;" transform="translate(5,57)" y="0" x="0" id="text-entity-article-5a9a9253-9605-5c65-ab99-278fb0374797-attr-2-type" class="er entityLabel">text</text><rect height="22" width="63.338218688964844" y="46" x="36.661781311035156" class="er attributeBoxEven"/><text style="dominant-baseline: middle; font-size: 10.2px;" transform="translate(41.661781311035156,57)" y="0" x="0" id="text-entity-article-5a9a9253-9605-5c65-ab99-278fb0374797-attr-2-name" class="er entityLabel">content</text><rect height="22" width="36.661781311035156" y="68" x="0" class="er attributeBoxOdd"/><text style="dominant-baseline: middle; font-size: 10.2px;" transform="translate(5,79)" y="0" x="0" id="text-entity-article-5a9a9253-9605-5c65-ab99-278fb0374797-attr-3-type" class="er entityLabel">date</text><rect height="22" width="63.338218688964844" y="68" x="36.661781311035156" class="er attributeBoxOdd"/><text style="dominant-baseline: middle; font-size: 10.2px;" transform="translate(41.661781311035156,79)" y="0" x="0" id="text-entity-article-5a9a9253-9605-5c65-ab99-278fb0374797-attr-3-name" class="er entityLabel">created_at</text><rect height="22" width="36.661781311035156" y="90" x="0" class="er attributeBoxEven"/><text style="dominant-baseline: middle; font-size: 10.2px;" transform="translate(5,101)" y="0" x="0" id="text-entity-article-5a9a9253-9605-5c65-ab99-278fb0374797-attr-4-type" class="er entityLabel">date</text><rect height="22" width="63.338218688964844" y="90" x="36.661781311035156" class="er attributeBoxEven"/><text style="dominant-baseline: middle; font-size: 10.2px;" transform="translate(41.661781311035156,101)" y="0" x="0" id="text-entity-article-5a9a9253-9605-5c65-ab99-278fb0374797-attr-4-name" class="er entityLabel">updated_at</text></g><g transform="translate(88.49835968017578,575 )" id="entity-comment-7f0f0a76-83e4-502b-856c-6daf5a42833b"><rect height="68" width="113.00328063964844" y="0" x="0" class="er entityBox"/><text style="dominant-baseline: middle; text-anchor: middle; font-size: 12px;" transform="translate(56.50164031982422,12)" y="0" x="0" id="text-entity-comment-7f0f0a76-83e4-502b-856c-6daf5a42833b" class="er entityLabel">comment</text><rect height="22" width="52.06849670410156" y="24" x="0" class="er attributeBoxOdd"/><text style="dominant-baseline: middle; font-size: 10.2px;" transform="translate(5,35)" y="0" x="0" id="text-entity-comment-7f0f0a76-83e4-502b-856c-6daf5a42833b-attr-1-type" class="er entityLabel">datetime</text><rect height="22" width="60.934783935546875" y="24" x="52.06849670410156" class="er attributeBoxOdd"/><text style="dominant-baseline: middle; font-size: 10.2px;" transform="translate(57.06849670410156,35)" y="0" x="0" id="text-entity-comment-7f0f0a76-83e4-502b-856c-6daf5a42833b-attr-1-name" class="er entityLabel">created_at</text><rect height="22" width="52.06849670410156" y="46" x="0" class="er attributeBoxEven"/><text style="dominant-baseline: middle; font-size: 10.2px;" transform="translate(5,57)" y="0" x="0" id="text-entity-comment-7f0f0a76-83e4-502b-856c-6daf5a42833b-attr-2-type" class="er entityLabel">text</text><rect height="22" width="60.934783935546875" y="46" x="52.06849670410156" class="er attributeBoxEven"/><text style="dominant-baseline: middle; font-size: 10.2px;" transform="translate(57.06849670410156,57)" y="0" x="0" id="text-entity-comment-7f0f0a76-83e4-502b-856c-6daf5a42833b-attr-2-name" class="er entityLabel">message</text></g><g transform="translate(170,188 )" id="entity-user-dad033c9-7a45-5f6a-ab5a-b5def405b2a6"><rect height="75" width="100" y="0" x="0" class="er entityBox"/><text style="dominant-baseline: middle; text-anchor: middle; font-size: 12px;" transform="translate(50,37.5)" y="0" x="0" id="text-entity-user-dad033c9-7a45-5f6a-ab5a-b5def405b2a6" class="er entityLabel">user</text></g><rect height="14" width="44.978515625" y="523.1961669921875" x="57.500511169433594" class="er relationshipLabelBox"/><text style="text-anchor: middle; dominant-baseline: middle; font-size: 12px;" y="530.1961669921875" x="79.9897689819336" id="rel1" class="er relationshipLabel">contains</text><rect height="14" width="44.978515625" y="204.96351623535156" x="-2.442636489868164" class="er relationshipLabelBox"/><text style="text-anchor: middle; dominant-baseline: middle; font-size: 12px;" y="211.96351623535156" x="20.046621322631836" id="rel2" class="er relationshipLabel">contains</text><rect height="14" width="38.5390625" y="125.80386352539062" x="190.7406768798828" class="er relationshipLabelBox"/><text style="text-anchor: middle; dominant-baseline: middle; font-size: 12px;" y="132.80386352539062" x="210.0102081298828" id="rel3" class="er relationshipLabel">prefers</text><rect height="14" width="36.615234375" y="304.7922668457031" x="128.88665771484375" class="er relationshipLabelBox"/><text style="text-anchor: middle; dominant-baseline: middle; font-size: 12px;" y="311.7922668457031" x="147.19427490234375" id="rel4" class="er relationshipLabel">author</text><rect height="14" width="36.615234375" y="423.99346923828125" x="251.67340087890625" class="er relationshipLabelBox"/><text style="text-anchor: middle; dominant-baseline: middle; font-size: 12px;" y="430.99346923828125" x="269.98101806640625" id="rel5" class="er relationshipLabel">author</text></svg>